HIERARCHY
ROOT SpineBase
{
  OFFSET 0.000000 0.000000 0.000000
  CHANNELS 6 Xposition Yposition Zposition Zrotation Xrotation Yrotation
  JOINT SpineMid
  {
    OFFSET 0.000000 34.849389 0.000000
    CHANNELS 3 Zrotation Xrotation Yrotation
    JOINT SpineShoulder
    {
      OFFSET -0.362349 25.777788 -0.837904
      CHANNELS 3 Zrotation Xrotation Yrotation
      JOINT Neck
      {
        OFFSET -0.263094 8.479523 -0.607195
        CHANNELS 3 Zrotation Xrotation Yrotation
        JOINT Head
        {
          OFFSET -2.315728 12.260520 6.200954
          CHANNELS 3 Zrotation Xrotation Yrotation
          End Site
          {
            OFFSET 0 0 0
          }
        }
      }
      JOINT ShoulderLeft
      {
        OFFSET -5.431307 -5.146425 14.707352
        CHANNELS 3 Zrotation Xrotation Yrotation
        JOINT ElbowLeft
        {
          OFFSET 3.985012 -8.544895 -27.347668
          CHANNELS 3 Zrotation Xrotation Yrotation
          JOINT WristLeft
          {
            OFFSET -9.712531 -24.782816 5.971396
            CHANNELS 3 Zrotation Xrotation Yrotation
            JOINT HandLeft
            {
              OFFSET 0.172878 -7.379299 2.906874
              CHANNELS 3 Zrotation Xrotation Yrotation
              JOINT HandTipLeft
              {
                OFFSET -0.855440 -8.488382 2.475474
                CHANNELS 3 Zrotation Xrotation Yrotation
                End Site
                {
                  OFFSET 0 0 0
                }
              }
              JOINT ThumbLeft
              {
                OFFSET -3.045446 4.938762 2.737088
                CHANNELS 3 Zrotation Xrotation Yrotation
                End Site
                {
                  OFFSET 0 0 0
                }
              }
            }
          }
        }
      }
      JOINT ShoulderRight
      {
        OFFSET -1.413466 -4.541891 -15.167463
        CHANNELS 3 Zrotation Xrotation Yrotation
        JOINT ElbowRight
        {
          OFFSET -4.442949 -26.810964 -6.851632
          CHANNELS 3 Zrotation Xrotation Yrotation
          JOINT WristRight
          {
            OFFSET -6.784254 -24.180021 0.872310
            CHANNELS 3 Zrotation Xrotation Yrotation
            JOINT HandRight
            {
              OFFSET -1.030490 -8.864599 2.357158
              CHANNELS 3 Zrotation Xrotation Yrotation
              JOINT HandTipRight
              {
                OFFSET -3.036607 -7.651616 0.558509
                CHANNELS 3 Zrotation Xrotation Yrotation
                End Site
                {
                  OFFSET 0 0 0
                }
              }
              JOINT ThumbRight
              {
                OFFSET 6.501597 0.413209 2.863613
                CHANNELS 3 Zrotation Xrotation Yrotation
                End Site
                {
                  OFFSET 0 0 0
                }
              }
            }
          }
        }
      }
    }
  }
  JOINT HipLeft
  {
    OFFSET -2.379830 -0.210742 2.854535
    CHANNELS 3 Zrotation Xrotation Yrotation
    JOINT KneeLeft
    {
      OFFSET 2.411954 -32.488831 -10.924358
      CHANNELS 3 Zrotation Xrotation Yrotation
      JOINT AnkleLeft
      {
        OFFSET 12.024827 -34.596809 23.454593
        CHANNELS 3 Zrotation Xrotation Yrotation
        JOINT FootLeft
        {
          OFFSET -4.149963 -7.114380 1.110855
          CHANNELS 3 Zrotation Xrotation Yrotation
          End Site
          {
            OFFSET 0 0 0
          }
        }
      }
    }
  }
  JOINT HipRight
  {
    OFFSET -0.344124 2.912276 -9.295083
    CHANNELS 3 Zrotation Xrotation Yrotation
    JOINT KneeRight
    {
      OFFSET 2.969959 -31.266674 -1.867404
      CHANNELS 3 Zrotation Xrotation Yrotation
      JOINT AnkleRight
      {
        OFFSET 7.400123 -34.797804 -1.813335
        CHANNELS 3 Zrotation Xrotation Yrotation
        JOINT FootRight
        {
          OFFSET -10.679077 -4.021579 -3.533424
          CHANNELS 3 Zrotation Xrotation Yrotation
          End Site
          {
            OFFSET 0 0 0
          }
        }
      }
    }
  }
}
MOTION
Frames: 13
Frame Time: 0.033333
84.088518 80.265751 194.275807 4.696161 -17.403677 72.720674 -0.429307 -0.312510 -72.106717 0.079395 0.005686 -0.125539 6.784830 -3.126176 -11.343665 0.000000 0.000000 0.000000 -6.304321 15.330120 4.514018 7.663336 -23.498277 9.645470 -20.558285 45.736155 -6.750372 7.093868 -37.179840 2.156852 0.000000 0.000000 0.000000 0.000000 0.000000 0.000000 -11.752096 6.877132 6.070703 -3.155023 0.710893 -0.809716 -12.121092 10.869214 -5.211301 14.404501 -5.471441 7.214219 0.000000 0.000000 0.000000 0.000000 0.000000 0.000000 20.520854 17.181588 -72.047545 4.739588 -0.915742 -0.668415 -35.569582 43.474446 -21.897111 0.000000 0.000000 0.000000 7.831136 30.413717 -69.366417 33.196330 15.728854 0.037284 -14.362577 -11.342405 -12.504785 0.000000 0.000000 0.000000
84.332910 78.274970 192.386736 5.324184 -20.093379 71.589554 0.242436 0.107419 -70.768401 0.201201 -0.084322 -0.156157 7.078196 -4.014433 -12.615344 0.000000 0.000000 0.000000 -7.232279 16.924221 5.950560 11.369896 -33.683553 15.036260 -29.160959 56.251494 -3.701305 22.967943 -41.390636 11.835821 0.000000 0.000000 0.000000 0.000000 0.000000 0.000000 -13.511057 5.764680 7.502060 -2.304702 1.666281 -1.079591 -8.463657 11.972322 -5.132355 5.996169 -6.134371 5.965887 0.000000 0.000000 0.000000 0.000000 0.000000 0.000000 21.746181 19.984597 -70.705900 6.195468 4.360870 0.918275 -23.959285 57.358626 -37.857005 0.000000 0.000000 0.000000 6.660072 36.602193 -66.255974 41.518446 15.480788 -0.972073 -16.162541 -11.127520 -13.088883 0.000000 0.000000 0.000000
84.579477 76.301365 190.300487 5.776186 -21.918923 70.686250 0.130632 0.018222 -69.706707 0.146114 0.126117 -0.172917 6.707693 -4.887366 -13.306713 0.000000 0.000000 0.000000 -7.891167 19.030858 6.991992 15.783138 -42.222737 21.005264 -32.951554 56.107510 -3.275966 31.121029 -32.941904 15.514419 0.000000 0.000000 0.000000 0.000000 0.000000 0.000000 -14.206434 5.543351 8.313684 -1.404260 1.985545 -1.133290 -6.958227 12.813816 -5.129498 2.069096 -7.196869 5.595529 0.000000 0.000000 0.000000 0.000000 0.000000 0.000000 20.963759 23.330564 -68.696806 9.004960 10.476153 2.238660 12.892989 67.006945 -75.543263 0.000000 0.000000 0.000000 2.994323 45.031202 -61.470998 52.682554 12.030784 -1.913284 -12.818061 -10.149292 -14.643625 0.000000 0.000000 0.000000
85.432513 74.595759 188.166889 6.849119 -22.606837 69.654674 -0.244940 0.186140 -68.341213 0.036701 0.283785 -0.154349 5.156227 -6.143784 -13.039192 0.000000 0.000000 0.000000 -8.473415 21.344758 7.302415 20.313385 -48.271606 26.927472 -33.641665 54.661296 -4.160448 33.230568 -23.223029 14.637015 0.000000 0.000000 0.000000 0.000000 0.000000 0.000000 -14.239940 5.694283 8.378460 -0.433940 1.436039 -0.930471 -6.685538 13.495918 -5.060091 1.799600 -8.713791 5.860744 0.000000 0.000000 0.000000 0.000000 0.000000 0.000000 18.014983 27.151408 -65.813380 12.354043 16.343184 3.199252 53.082285 62.722849 -113.897652 0.000000 0.000000 0.000000 -3.271681 51.823680 -55.117977 60.927258 8.080517 -2.431785 -8.472823 -8.829713 -15.691395 0.000000 0.000000 0.000000
85.580374 73.170405 186.261792 6.999856 -23.683196 69.074102 0.191426 0.186540 -67.718577 0.097485 0.232677 -0.162760 3.564269 -7.222017 -12.519749 0.000000 0.000000 0.000000 -8.754414 23.485077 7.362385 23.770999 -51.207975 31.010610 -42.357412 63.447671 3.288320 35.618925 -28.609413 17.008724 0.000000 0.000000 0.000000 0.000000 0.000000 0.000000 -13.847219 6.751277 8.149353 0.523429 -0.090319 -0.533666 -7.055531 14.887388 -4.982593 3.176381 -10.399425 6.351946 0.000000 0.000000 0.000000 0.000000 0.000000 0.000000 15.407029 29.060759 -63.428324 15.157925 21.228027 3.654134 66.705165 56.748427 -126.432415 0.000000 0.000000 0.000000 -9.849669 56.002151 -48.661549 68.652201 6.268228 -3.389515 -6.218521 -8.282750 -17.460964 0.000000 0.000000 0.000000
85.229329 72.176815 184.775202 6.369643 -24.279079 68.220105 0.583534 -0.203356 -67.089545 0.250685 -0.020012 -0.186778 2.016172 -8.660878 -11.919013 0.000000 0.000000 0.000000 -8.641402 25.478663 6.976731 22.506701 -50.675577 29.980380 -36.962126 67.259270 0.824233 29.999890 -34.519820 15.677005 0.000000 0.000000 0.000000 0.000000 0.000000 0.000000 -12.787398 9.095415 7.427297 1.007422 -2.634348 0.236507 -7.457924 17.175550 -4.915377 4.878984 -12.999794 7.013202 0.000000 0.000000 0.000000 0.000000 0.000000 0.000000 11.816690 30.543658 -60.205149 18.791653 23.694757 2.659594 75.445363 49.979577 -128.646453 0.000000 0.000000 0.000000 -17.616408 56.926655 -42.154663 74.490843 7.084252 -5.281780 -5.428815 -8.380551 -19.459134 0.000000 0.000000 0.000000
84.422139 71.655860 183.729778 5.121815 -24.719820 68.438614 0.909104 -0.709481 -67.705797 0.410889 -0.128801 -0.235028 1.083344 -8.837682 -11.152390 0.000000 0.000000 0.000000 -7.844377 27.112602 5.975002 20.592412 -51.831951 29.877319 -25.332865 66.667334 -6.793632 22.370711 -37.777878 12.001120 0.000000 0.000000 0.000000 0.000000 0.000000 0.000000 -11.142032 12.013911 6.380360 1.586019 -4.639129 0.947604 -8.540985 17.884455 -4.703341 6.208577 -14.577517 7.514231 0.000000 0.000000 0.000000 0.000000 0.000000 0.000000 10.469869 29.977268 -59.490149 20.505640 22.339930 0.876727 81.580385 50.210860 -135.213174 0.000000 0.000000 0.000000 -18.939051 55.307895 -42.096838 76.730716 8.844807 -7.180472 -6.931300 -8.396229 -19.662217 0.000000 0.000000 0.000000
83.328863 70.996965 182.707014 3.592552 -25.045929 69.382844 1.204615 -1.167376 -69.115514 0.568365 -0.233090 -0.295007 0.852462 -8.624303 -10.584818 0.000000 0.000000 0.000000 -7.241140 27.822054 6.441527 20.148254 -52.579660 29.378231 -25.151822 64.189571 -7.274462 22.272930 -36.316747 11.750513 0.000000 0.000000 0.000000 0.000000 0.000000 0.000000 -8.496499 15.270989 4.747597 1.402028 -7.446127 2.153225 -10.176478 19.306500 -4.536891 11.602387 -13.429865 8.106404 0.000000 0.000000 0.000000 0.000000 0.000000 0.000000 11.529463 27.826297 -61.111155 20.105058 23.181766 0.978426 79.232730 54.222196 -138.243889 0.000000 0.000000 0.000000 -16.879311 51.629865 -46.067230 76.563881 12.330000 -9.607036 -10.630034 -8.464994 -18.889491 0.000000 0.000000 0.000000
82.020951 70.637991 182.156394 1.883695 -25.138103 70.799297 1.211665 -1.591138 -71.021936 0.698830 -0.370755 -0.365474 1.442956 -7.922004 -10.332296 0.000000 0.000000 0.000000 -6.607213 26.302468 7.382577 19.377640 -51.619295 27.626095 -17.304233 65.245405 -12.664577 17.510771 -36.781768 9.703469 0.000000 0.000000 0.000000 0.000000 0.000000 0.000000 -6.139717 17.605537 3.526835 1.771999 -8.797826 2.861810 -10.313717 21.791843 -4.501258 13.694023 -14.570472 8.524685 0.000000 0.000000 0.000000 0.000000 0.000000 0.000000 14.312346 24.192171 -64.362935 17.637734 23.280402 1.805461 78.110323 58.623938 -143.450002 0.000000 0.000000 0.000000 -11.871802 45.829842 -53.065256 73.961582 16.808741 -11.792725 -16.654412 -8.770582 -17.330814 0.000000 0.000000 0.000000
80.710229 70.260641 181.493869 0.317266 -25.337778 72.006851 1.272401 -1.817265 -72.661937 0.792161 -0.405086 -0.434694 2.013383 -7.145259 -9.971361 0.000000 0.000000 0.000000 -5.742034 25.282256 7.996173 18.680245 -51.024482 26.291608 -8.679035 64.922829 -18.682951 14.187308 -34.543962 8.362175 0.000000 0.000000 0.000000 0.000000 0.000000 0.000000 -4.254035 18.688992 2.778269 2.302428 -8.905120 3.126454 -9.873249 24.584524 -4.604106 14.394117 -17.106530 9.205867 0.000000 0.000000 0.000000 0.000000 0.000000 0.000000 20.761298 21.090527 -68.108813 13.995721 19.648196 3.177987 86.577662 66.935990 -167.847489 0.000000 0.000000 0.000000 -8.795993 40.359025 -58.179197 70.437715 20.470340 -13.450428 -22.213444 -7.950014 -15.368445 0.000000 0.000000 0.000000
79.567621 70.109655 181.048013 -0.922308 -25.355592 73.254496 1.177088 -1.861549 -74.221977 0.836903 -0.390333 -0.491821 2.800185 -6.170485 -9.705329 0.000000 0.000000 0.000000 -4.935166 23.796098 8.694802 18.038685 -50.008398 24.733332 -10.199272 61.470858 -17.719300 14.191954 -35.439698 8.557170 0.000000 0.000000 0.000000 0.000000 0.000000 0.000000 -2.990334 18.661588 2.549982 2.597468 -7.684169 2.832964 -7.955605 26.648400 -4.865358 11.434512 -20.655678 9.060227 0.000000 0.000000 0.000000 0.000000 0.000000 0.000000 22.080631 17.488979 -70.324638 11.763086 19.991400 3.834273 93.664547 74.422659 175.547675 0.000000 0.000000 0.000000 -5.278339 33.580611 -63.631084 65.711313 24.560067 -14.626024 -28.729216 -7.901146 -13.450512 0.000000 0.000000 0.000000
78.836387 69.851773 180.448148 -1.593299 -25.167763 74.083830 0.969195 -1.680000 -75.173144 0.813616 -0.284768 -0.521998 3.371388 -6.020220 -9.527469 0.000000 0.000000 0.000000 -4.247897 22.677157 9.248098 17.631305 -49.341120 23.572037 -9.432803 60.104779 -18.281682 14.029230 -35.560790 8.687529 0.000000 0.000000 0.000000 0.000000 0.000000 0.000000 -2.376014 17.453378 2.772353 2.937812 -5.185843 2.062984 -7.246735 25.248086 -4.689468 7.997431 -20.509779 7.634214 0.000000 0.000000 0.000000 0.000000 0.000000 0.000000 18.728713 13.865618 -71.434175 10.224539 24.255707 4.272132 90.740921 75.967925 178.568568 0.000000 0.000000 0.000000 -3.293127 31.204262 -66.068623 62.051521 24.128826 -13.730457 -28.602284 -6.783525 -12.552499 0.000000 0.000000 0.000000
78.622924 69.628303 179.824352 -1.573996 -24.837411 74.837167 0.676011 -1.261194 -75.827085 0.715088 -0.100438 -0.519473 3.746157 -5.864623 -9.324845 0.000000 0.000000 0.000000 -3.781363 21.341076 9.512842 17.377407 -48.564972 22.764966 -8.874195 59.524312 -18.674535 14.914344 -35.726773 9.350301 0.000000 0.000000 0.000000 0.000000 0.000000 0.000000 -1.530592 16.465571 2.631156 2.667741 -3.208558 1.593693 -9.869784 24.052390 -4.304705 8.624252 -20.567850 7.865096 0.000000 0.000000 0.000000 0.000000 0.000000 0.000000 11.106385 10.237648 -72.326803 9.085968 32.397399 4.683007 77.539941 73.143226 -161.129843 0.000000 0.000000 0.000000 -2.300765 31.813546 -66.949319 60.788199 21.671768 -12.600884 -25.801202 -5.631247 -12.448647 0.000000 0.000000 0.000000
